<svg width="20" height="20" viewBox="0 0 20 20" fill="none" xmlns="http://www.w3.org/2000/svg">
<path d="M12 18.4V12.6C12 12.2686 12.2686 12 12.6 12H18.4C18.7314 12 19 12.2686 19 12.6V18.4C19 18.7314 18.7314 19 18.4 19H12.6C12.2686 19 12 18.7314 12 18.4Z" stroke="#F8F8EB" stroke-opacity="0.7"/>
<path d="M1 18.4V12.6C1 12.2686 1.26863 12 1.6 12H7.4C7.73137 12 8 12.2686 8 12.6V18.4C8 18.7314 7.73137 19 7.4 19H1.6C1.26863 19 1 18.7314 1 18.4Z" stroke="#F8F8EB" stroke-opacity="0.7"/>
<path d="M12 7.4V1.6C12 1.26863 12.2686 1 12.6 1H18.4C18.7314 1 19 1.26863 19 1.6V7.4C19 7.73137 18.7314 8 18.4 8H12.6C12.2686 8 12 7.73137 12 7.4Z" stroke="#F8F8EB" stroke-opacity="0.7"/>
<path d="M1 7.4V1.6C1 1.26863 1.26863 1 1.6 1H7.4C7.73137 1 8 1.26863 8 1.6V7.4C8 7.73137 7.73137 8 7.4 8H1.6C1.26863 8 1 7.73137 1 7.4Z" stroke="#F8F8EB" stroke-opacity="0.7"/>
</svg>
