<svg width="56" height="56" viewBox="0 0 56 56" fill="none" xmlns="http://www.w3.org/2000/svg">
<path fill-rule="evenodd" clip-rule="evenodd" d="M56 28C56 43.464 43.464 56 28 56C12.536 56 0 43.464 0 28C0 12.536 12.536 0 28 0C43.464 0 56 12.536 56 28ZM20 36.1857V18.8143C20 18.3646 20.3646 18 20.8143 18H24.6143C25.064 18 25.4286 18.3646 25.4286 18.8143V36.1857C25.4286 36.6355 25.064 37 24.6143 37H20.8143C20.3646 37 20 36.6355 20 36.1857ZM30.8571 18.8143V36.1857C30.8571 36.6355 31.2217 37 31.6714 37H35.4714C35.9212 37 36.2857 36.6355 36.2857 36.1857V18.8143C36.2857 18.3646 35.9212 18 35.4714 18H31.6714C31.2217 18 30.8571 18.3646 30.8571 18.8143Z" fill="#F8F8EB"/>
</svg>
