<svg width="30" height="29" viewBox="0 0 30 29" fill="none" xmlns="http://www.w3.org/2000/svg">
<path d="M1 11.9488H20.6H1Z" fill="#F8F8EB"/>
<path d="M1 11.9488H20.6" stroke="#F8F8EB" stroke-width="2" stroke-linecap="round" stroke-linejoin="round"/>
<path d="M1 22.1541H16.4H1Z" fill="#F8F8EB"/>
<path d="M1 22.1541H16.4" stroke="#F8F8EB" stroke-width="2" stroke-linecap="round" stroke-linejoin="round"/>
<path d="M1 1.74341H26.2H1Z" fill="#F8F8EB"/>
<path d="M1 1.74341H26.2" stroke="#F8F8EB" stroke-width="2" stroke-linecap="round" stroke-linejoin="round"/>
<path d="M26.2 24.7055C26.2 26.1145 25.2598 27.2568 24.1 27.2568C22.9402 27.2568 22 26.1145 22 24.7055C22 23.2964 22.9402 22.1541 24.1 22.1541C25.2598 22.1541 26.2 23.2964 26.2 24.7055Z" fill="#F8F8EB"/>
<path d="M26.2 24.7054C26.2 26.1145 25.2598 27.2568 24.1 27.2568C22.9402 27.2568 22 26.1145 22 24.7054C22 23.2964 22.9402 22.1541 24.1 22.1541C25.2598 22.1541 26.2 23.2964 26.2 24.7054ZM26.2 24.7054V11.2684C26.2 10.7047 26.576 10.2479 27.04 10.2479H29" fill="#F8F8EB"/>
<path d="M26.2 24.7054C26.2 26.1145 25.2598 27.2568 24.1 27.2568C22.9402 27.2568 22 26.1145 22 24.7054C22 23.2964 22.9402 22.1541 24.1 22.1541C25.2598 22.1541 26.2 23.2964 26.2 24.7054ZM26.2 24.7054V11.2684C26.2 10.7047 26.576 10.2479 27.04 10.2479H29" stroke="#F8F8EB" stroke-width="2" stroke-linecap="round"/>
</svg>
